<?xml version="1.0" encoding="UTF-8" standalone="no"?>
<svg
   xmlns:dc="http://purl.org/dc/elements/1.1/"
   xmlns:cc="http://creativecommons.org/ns#"
   xmlns:rdf="http://www.w3.org/1999/02/22-rdf-syntax-ns#"
   xmlns:svg="http://www.w3.org/2000/svg"
   xmlns="http://www.w3.org/2000/svg"
   xmlns:sodipodi="http://sodipodi.sourceforge.net/DTD/sodipodi-0.dtd"
   xmlns:inkscape="http://www.inkscape.org/namespaces/inkscape"
   inkscape:version="1.0 (4035a4fb49, 2020-05-01)"
   sodipodi:docname="wave-up-1.svg"
   version="1.1"
   height="240"
   width="960"
   viewBox="0 0 960 240"
   id="visual">
  <metadata
     id="metadata17">
    <rdf:RDF>
      <cc:Work
         rdf:about="">
        <dc:format>image/svg+xml</dc:format>
        <dc:type
           rdf:resource="http://purl.org/dc/dcmitype/StillImage" />
        <dc:title></dc:title>
      </cc:Work>
    </rdf:RDF>
  </metadata>
  <defs
     id="defs15" />
  <sodipodi:namedview
     inkscape:current-layer="visual"
     inkscape:window-maximized="0"
     inkscape:window-y="8"
     inkscape:window-x="67"
     inkscape:cy="285.77287"
     inkscape:cx="432.25088"
     inkscape:zoom="0.93544335"
     showgrid="false"
     id="namedview13"
     inkscape:window-height="876"
     inkscape:window-width="1807"
     inkscape:pageshadow="2"
     inkscape:pageopacity="0"
     guidetolerance="10"
     gridtolerance="10"
     objecttolerance="10"
     borderopacity="1"
     bordercolor="#666666"
     pagecolor="#ffffff" />
  <rect
     style="stroke-width:0.666666"
     id="rect2"
     fill="#6f8a91"
     height="240"
     width="960"
     y="0"
     x="0" />
  <path
     id="path4"
     fill="#374548"
     d="m 0,128 11.5,0.5 c 11.5,0.5 34.5,1.5 57.3,1.8 22.9,0.4 45.5,0 68.4,-3.3 22.8,-3.3 45.8,-9.7 68.6,-14.2 22.9,-4.5 45.5,-7.1 68.4,-6.5 22.8,0.7 45.8,4.7 68.6,8.5 22.9,3.9 45.5,7.5 68.4,5 22.8,-2.5 45.8,-11.1 68.8,-11.6 23,-0.5 46,7.1 68.8,9.1 22.9,2 45.5,-1.6 68.4,-5.3 22.8,-3.7 45.8,-7.3 68.6,-8.8 22.9,-1.5 45.5,-0.9 68.4,5.3 22.8,6.2 45.8,17.8 68.6,20.5 22.9,2.7 45.5,-3.7 68.4,-8.3 C 914,116 937,113 948.5,111.5 L 960,110 V 0 H 948.5 C 937,0 914,0 891.2,0 868.3,0 845.7,0 822.8,0 800,0 777,0 754.2,0 731.3,0 708.7,0 685.8,0 663,0 640,0 617.2,0 594.3,0 571.7,0 548.8,0 526,0 503,0 480,0 457,0 434,0 411.2,0 388.3,0 365.7,0 342.8,0 320,0 297,0 274.2,0 251.3,0 228.7,0 205.8,0 183,0 160,0 137.2,0 114.3,0 91.7,0 68.8,0 46,0 23,0 11.5,0 H 0 Z" />
  <path
     id="path6"
     fill="#376e72"
     d="m 0,109 11.5,-6 C 23,97 46,85 68.8,82.7 c 22.9,-2.4 45.5,5 68.4,10.3 22.8,5.3 45.8,8.7 68.6,10.2 22.9,1.5 45.5,1.1 68.4,-1.2 22.8,-2.3 45.8,-6.7 68.6,-7.3 22.9,-0.7 45.5,2.3 68.4,0 22.8,-2.4 45.8,-10 68.8,-10.2 23,-0.2 46,7.2 68.8,10.3 22.9,3.2 45.5,2.2 68.4,-0.8 22.8,-3 45.8,-8 68.6,-8 22.9,0 45.5,5 68.4,7.7 22.8,2.6 45.8,3 68.6,2 22.9,-1 45.5,-3.4 68.4,-2.5 C 914,94 937,98 948.5,100 l 11.5,2 V 0 H 948.5 C 937,0 914,0 891.2,0 868.3,0 845.7,0 822.8,0 800,0 777,0 754.2,0 731.3,0 708.7,0 685.8,0 663,0 640,0 617.2,0 594.3,0 571.7,0 548.8,0 526,0 503,0 480,0 457,0 434,0 411.2,0 388.3,0 365.7,0 342.8,0 320,0 297,0 274.2,0 251.3,0 228.7,0 205.8,0 183,0 160,0 137.2,0 114.3,0 91.7,0 68.8,0 46,0 23,0 11.5,0 H 0 Z" />
  <path
     id="path8"
     fill="#2f9a94"
     d="m 0,52 11.5,3.3 c 11.5,3.4 34.5,10 57.3,12 22.9,2 45.5,-0.6 68.4,-0.5 22.8,0.2 45.8,3.2 68.6,2.5 22.9,-0.6 45.5,-5 68.4,-6.5 22.8,-1.5 45.8,-0.1 68.6,-2 22.9,-1.8 45.5,-6.8 68.4,-6.1 22.8,0.6 45.8,7 68.8,9.1 23,2.2 46,0.2 68.8,-0.8 22.9,-1 45.5,-1 68.4,-2.8 22.8,-1.9 45.8,-5.5 68.6,-6.9 22.9,-1.3 45.5,-0.3 68.4,3.7 22.8,4 45.8,11 68.6,14.3 22.9,3.4 45.5,3 68.4,3.4 C 914,75 937,76 948.5,76.5 L 960,77 V 0 H 948.5 C 937,0 914,0 891.2,0 868.3,0 845.7,0 822.8,0 800,0 777,0 754.2,0 731.3,0 708.7,0 685.8,0 663,0 640,0 617.2,0 594.3,0 571.7,0 548.8,0 526,0 503,0 480,0 457,0 434,0 411.2,0 388.3,0 365.7,0 342.8,0 320,0 297,0 274.2,0 251.3,0 228.7,0 205.8,0 183,0 160,0 137.2,0 114.3,0 91.7,0 68.8,0 46,0 23,0 11.5,0 H 0 Z" />
  <path
     id="path10"
     fill="#37c8ab"
     d="m 0,17 11.5,4.8 C 23,26.7 46,36.3 68.8,37 91.7,37.7 114.3,29.3 137.2,29.2 160,29 183,37 205.8,40.5 228.7,44 251.3,43 274.2,42 297,41 320,40 342.8,39.5 365.7,39 388.3,39 411.2,35.3 434,31.7 457,24.3 480,24 c 23,-0.3 46,6.3 68.8,11.3 22.9,5 45.5,8.4 68.4,5 C 640,37 663,27 685.8,22.2 c 22.9,-4.9 45.5,-4.5 68.4,-4.7 22.8,-0.2 45.8,-0.8 68.6,3.2 22.9,4 45.5,12.6 68.4,14 C 914,36 937,30 948.5,27 L 960,24 V 0 H 948.5 C 937,0 914,0 891.2,0 868.3,0 845.7,0 822.8,0 800,0 777,0 754.2,0 731.3,0 708.7,0 685.8,0 663,0 640,0 617.2,0 594.3,0 571.7,0 548.8,0 526,0 503,0 480,0 457,0 434,0 411.2,0 388.3,0 365.7,0 342.8,0 320,0 297,0 274.2,0 251.3,0 228.7,0 205.8,0 183,0 160,0 137.2,0 114.3,0 91.7,0 68.8,0 46,0 23,0 11.5,0 H 0 Z" />
</svg>
