<?xml version="1.0" encoding="UTF-8" standalone="no"?>
<svg
   xmlns:dc="http://purl.org/dc/elements/1.1/"
   xmlns:cc="http://creativecommons.org/ns#"
   xmlns:rdf="http://www.w3.org/1999/02/22-rdf-syntax-ns#"
   xmlns:svg="http://www.w3.org/2000/svg"
   xmlns="http://www.w3.org/2000/svg"
   xmlns:sodipodi="http://sodipodi.sourceforge.net/DTD/sodipodi-0.dtd"
   xmlns:inkscape="http://www.inkscape.org/namespaces/inkscape"
   inkscape:version="1.0 (4035a4fb49, 2020-05-01)"
   sodipodi:docname="wave-down-2.svg"
   version="1.1"
   height="240"
   width="960"
   viewBox="0 0 960 240"
   id="visual">
  <metadata
     id="metadata17">
    <rdf:RDF>
      <cc:Work
         rdf:about="">
        <dc:format>image/svg+xml</dc:format>
        <dc:type
           rdf:resource="http://purl.org/dc/dcmitype/StillImage" />
        <dc:title></dc:title>
      </cc:Work>
    </rdf:RDF>
  </metadata>
  <defs
     id="defs15" />
  <sodipodi:namedview
     inkscape:current-layer="visual"
     inkscape:window-maximized="1"
     inkscape:window-y="-8"
     inkscape:window-x="-8"
     inkscape:cy="228.19711"
     inkscape:cx="703.66093"
     inkscape:zoom="0.46772167"
     showgrid="false"
     id="namedview13"
     inkscape:window-height="1017"
     inkscape:window-width="1920"
     inkscape:pageshadow="2"
     inkscape:pageopacity="0"
     guidetolerance="10"
     gridtolerance="10"
     objecttolerance="10"
     borderopacity="1"
     bordercolor="#666666"
     pagecolor="#ffffff" />
  <rect
     style="stroke-width:0.666667"
     id="rect2"
     fill="#6f8a91"
     height="240"
     width="960"
     y="0"
     x="0" />
  <path
     id="path4"
     fill="#374548"
     d="m 0,100 13.3,4.7 c 13.4,4.6 40,14 66.7,18.6 26.7,4.7 53.3,4.7 80,0.9 26.7,-3.9 53.3,-11.5 80,-15.2 26.7,-3.7 53.3,-3.3 80,-2.7 26.7,0.7 53.3,1.7 80,3.4 26.7,1.6 53.3,4 80,3.5 26.7,-0.5 53.3,-3.9 80,-6.2 26.7,-2.3 53.3,-3.7 80,-1.7 26.7,2 53.3,7.4 80,8.2 26.7,0.8 53.3,-2.8 80,-0.8 26.7,2 53.3,9.6 80,10.1 26.7,0.5 53.3,-6.1 66.7,-9.5 L 960,110 v 130 h -13.3 c -13.4,0 -40,0 -66.7,0 -26.7,0 -53.3,0 -80,0 -26.7,0 -53.3,0 -80,0 -26.7,0 -53.3,0 -80,0 -26.7,0 -53.3,0 -80,0 -26.7,0 -53.3,0 -80,0 -26.7,0 -53.3,0 -80,0 -26.7,0 -53.3,0 -80,0 -26.7,0 -53.3,0 -80,0 -26.7,0 -53.3,0 -80,0 -26.7,0 -53.3,0 -80,0 -26.7,0 -53.3,0 -66.7,0 H 0 Z" />
  <path
     id="path6"
     fill="#376e72"
     d="m 0,131 13.3,2.7 c 13.4,2.6 40,8 66.7,9.6 26.7,1.7 53.3,-0.3 80,2.2 26.7,2.5 53.3,9.5 80,12.2 26.7,2.6 53.3,1 80,-3.4 26.7,-4.3 53.3,-11.3 80,-12.1 26.7,-0.9 53.3,4.5 80,8.8 26.7,4.3 53.3,7.7 80,6.2 26.7,-1.5 53.3,-7.9 80,-12.2 26.7,-4.3 53.3,-6.7 80,-8.2 26.7,-1.5 53.3,-2.1 80,-3.3 26.7,-1.2 53.3,-2.8 80,-3 26.7,-0.2 53.3,1.2 66.7,1.8 L 960,133 v 107 h -13.3 c -13.4,0 -40,0 -66.7,0 -26.7,0 -53.3,0 -80,0 -26.7,0 -53.3,0 -80,0 -26.7,0 -53.3,0 -80,0 -26.7,0 -53.3,0 -80,0 -26.7,0 -53.3,0 -80,0 -26.7,0 -53.3,0 -80,0 -26.7,0 -53.3,0 -80,0 -26.7,0 -53.3,0 -80,0 -26.7,0 -53.3,0 -80,0 -26.7,0 -53.3,0 -80,0 -26.7,0 -53.3,0 -66.7,0 H 0 Z" />
  <path
     id="path8"
     fill="#2f9a94"
     d="m 0,167 13.3,4 c 13.4,4 40,12 66.7,13 26.7,1 53.3,-5 80,-10.2 26.7,-5.1 53.3,-9.5 80,-11.1 26.7,-1.7 53.3,-0.7 80,2.1 26.7,2.9 53.3,7.5 80,8 26.7,0.5 53.3,-3.1 80,-1 26.7,2.2 53.3,10.2 80,10.5 26.7,0.4 53.3,-7 80,-9.5 26.7,-2.5 53.3,-0.1 80,3 26.7,3.2 53.3,7.2 80,9 26.7,1.9 53.3,1.5 80,2.5 26.7,1 53.3,3.4 66.7,4.5 L 960,193 v 47 h -13.3 c -13.4,0 -40,0 -66.7,0 -26.7,0 -53.3,0 -80,0 -26.7,0 -53.3,0 -80,0 -26.7,0 -53.3,0 -80,0 -26.7,0 -53.3,0 -80,0 -26.7,0 -53.3,0 -80,0 -26.7,0 -53.3,0 -80,0 -26.7,0 -53.3,0 -80,0 -26.7,0 -53.3,0 -80,0 -26.7,0 -53.3,0 -80,0 -26.7,0 -53.3,0 -80,0 -26.7,0 -53.3,0 -66.7,0 H 0 Z" />
  <path
     id="path10"
     fill="#37c8ab"
     d="m 0,190 13.3,5.2 c 13.4,5.1 40,15.5 66.7,19.1 26.7,3.7 53.3,0.7 80,-1.1 26.7,-1.9 53.3,-2.5 80,-6 26.7,-3.5 53.3,-9.9 80,-11.7 26.7,-1.8 53.3,0.8 80,3.8 26.7,3 53.3,6.4 80,5.9 26.7,-0.5 53.3,-4.9 80,-4.2 26.7,0.7 53.3,6.3 80,10.5 26.7,4.2 53.3,6.8 80,6.5 26.7,-0.3 53.3,-3.7 80,-4.8 26.7,-1.2 53.3,-0.2 80,-0.9 26.7,-0.6 53.3,-3 66.7,-4.1 L 960,207 v 33 h -13.3 c -13.4,0 -40,0 -66.7,0 -26.7,0 -53.3,0 -80,0 -26.7,0 -53.3,0 -80,0 -26.7,0 -53.3,0 -80,0 -26.7,0 -53.3,0 -80,0 -26.7,0 -53.3,0 -80,0 -26.7,0 -53.3,0 -80,0 -26.7,0 -53.3,0 -80,0 -26.7,0 -53.3,0 -80,0 -26.7,0 -53.3,0 -80,0 -26.7,0 -53.3,0 -80,0 -26.7,0 -53.3,0 -66.7,0 H 0 Z" />
</svg>
